<?xml version="1.0" encoding="UTF-8"?>
<svg data-name="Layer 1" width="1340" height="320" viewBox="290 380 1340 320" xmlns="http://www.w3.org/2000/svg">
<defs>
<style>.cls-1{fill:#25bdad;}.cls-2{fill:#fff;}</style>
</defs>
<title>Artboard innospace tirana_logo_horizontal_RGB_white</title>
<path class="cls-1" d="M598.62,411.35V596c0,10.53-7.69,19.93-18.17,20.92a20.15,20.15,0,0,1-22.13-20.05V477.3a7.17,7.17,0,0,0-12.24-5.07L407.16,611.12a20.09,20.09,0,0,1-28,.49c-8.38-7.82-8-21.53.15-29.65L517.56,443.74a7.17,7.17,0,0,0-5.07-12.24H393.8c-10.53,0-19.93-7.7-20.92-18.18a20.15,20.15,0,0,1,20.05-22.13H578.47c.65,0,1.31,0,1.93.1a18.13,18.13,0,0,1,1.92.28c.62.12,1.27.28,1.89.46a18.89,18.89,0,0,1,1.83.65,20,20,0,0,1,6.66,4.4c.47.47.9.93,1.34,1.43,0,0,0,.06.06.09.43.53.8,1.09,1.18,1.65a20.28,20.28,0,0,1,1.86,3.5v0c.24.62.46,1.21.65,1.83a19.3,19.3,0,0,1,.46,1.89,17.06,17.06,0,0,1,.28,1.92C598.59,410,598.62,410.69,598.62,411.35Z"/>
<path class="cls-1" d="m586 392.68a16.65 16.65 0 0 1 3.5 1.83 20.49 20.49 0 0 0-3.5-1.83z"/>
<path class="cls-1" d="m589.54 394.51a18.13 18.13 0 0 1 3.16 2.57 20.67 20.67 0 0 0-3.16-2.57z"/>
<path class="cls-1" d="m597.14 403.75a20.28 20.28 0 0 0-1.86-3.5 18.3 18.3 0 0 1 1.86 3.5z"/>
<path class="cls-1" d="M578.47,688.81H321.16A20.16,20.16,0,0,1,301,668.65V412.21c0-10.52,7.7-19.92,18.17-20.92a20.15,20.15,0,0,1,22.13,20.06v230a7.18,7.18,0,0,0,7.18,7.17H577.61c10.52,0,19.92,7.7,20.92,18.18A20.16,20.16,0,0,1,578.47,688.81Z"/>
<path class="cls-2" d="M691,451.37c0-9.51,7.23-14.67,16.53-14.67s16.53,5.16,16.53,14.67c0,9.71-7.23,14.67-16.53,14.67S691,461.08,691,451.37Zm33.06,27.27V584.43H691V478.64Z"/>
<path class="cls-2" d="m842.7 512.94v71.49h-33.06v-60.95c0-15.91-5.58-21.29-16.53-21.29-12.6 0-19.83 6.41-19.83 21.08v61.16h-33.06v-105.79h33.06v15.29h0.41c5.58-9.71 15.91-18.6 34.71-18.6 20.46 0 34.3 13.43 34.3 37.61z"/>
<path class="cls-2" d="m960.48 512.94v71.49h-33.06v-60.95c0-15.91-5.58-21.29-16.53-21.29-12.61 0-19.84 6.41-19.84 21.08v61.16h-33.05v-105.79h33.06v15.29h0.41c5.58-9.71 15.91-18.6 34.72-18.6 20.44 0 34.29 13.43 34.29 37.61z"/>
<path class="cls-2" d="m1027.6 587.73c-35.33 0-56.61-23.34-56.61-56.2s21.28-56.2 56.61-56.2c35.12 0 56.41 23.35 56.41 56.2s-21.29 56.2-56.41 56.2zm0-24.79c14.46 0 23.35-11 23.35-31.41s-8.89-31.4-23.35-31.4c-14.67 0-23.56 10.95-23.56 31.4s8.93 31.41 23.56 31.41z"/>
<path class="cls-2" d="m1181.6 555.5c0 19.22-17.56 31.82-41.53 31.82-32.23 0-47.11-15.29-48.14-38h16.53c1 11.78 5.17 23.56 31.61 23.56 18 0 25-9.3 25-16.32 0-15.3-13.84-16.12-28.92-19.84-16.12-3.93-40.09-5.79-40.09-30.58 0-16.53 14.67-30 39.47-30 26.24 0 40.29 14.88 41.94 33.06h-16.53c-1.65-8.06-5.58-18.6-25.41-18.6-14.88 0-22.94 6-22.94 14.26 0 12.4 14.26 13.43 28.93 16.94 18.8 4.57 40.08 7.67 40.08 33.7z"/>
<path class="cls-2" d="m1295.2 531.74c0 34.71-21.07 55.58-47.1 55.58-17.36 0-27.28-7.44-33.48-16.53h-0.41v49.21h-16.53v-140.95h16.53v13h0.41c6.2-8.06 16.12-15.91 33.48-15.91 26.03 0.02 47.1 20.86 47.1 55.6zm-16.52 0c0-20.66-11-41.12-32.65-41.12-19.63 0-31.82 16.33-31.82 41.12s12.19 41.12 31.82 41.12c21.69 0 32.65-20.46 32.65-41.12z"/>
<path class="cls-2" d="m1355.5 490.62c-20 0-26.65 5.79-27.69 21.08h-16.52c1-20.25 13.63-35.54 44.21-35.54 20 0 38 7.85 38 33.27v51.24c0 8.26 1.45 12.81 12 11.57v11.57a26.58 26.58 0 0 1-9.71 1.65c-9.92 0-15.91-2.68-18.8-14.26h-0.41c-6.62 9.92-18.39 16.12-35.75 16.12-21.28 0-34.71-12.19-34.71-30 0-24 17.77-30.16 45-35.33 17.77-3.31 25.83-5.58 25.83-16.12 0.01-8.22-4.51-15.25-21.45-15.25zm21.49 53.1v-17.56c-3.1 3.1-13.22 6-24.38 8.27-20.46 4.34-30 9.5-30 22.11 0 10.33 6.2 16.32 19.83 16.32 19.67 0 34.52-8.86 34.52-29.14z"/>
<path class="cls-2" d="m1463 490.62c-25 0-34.51 21.29-34.51 41.12s9.51 41.12 34.51 41.12c21.28 0 28.92-14.67 29.75-27.28h16.53c-1.45 24-20.25 41.74-46.28 41.74-30.79 0-51-22.52-51-55.58s20.25-55.58 51-55.58c26 0 43.8 17.36 46.28 40.91h-16.53c-0.84-11.57-8.69-26.45-29.75-26.45z"/>
<path class="cls-2" d="m1600.8 552h16.53c-5.37 19.63-20.45 35.33-46.69 35.33-32 0-51.45-22.52-51.45-55.58 0-35.12 19.83-55.58 50.62-55.58 33.06 0 49.18 22.52 49.18 59.92h-83.27c0 19 11.36 36.78 34.3 36.78 21.07-0.01 28.92-13.65 30.78-20.87zm-65.08-30.37h66.74c0-16.95-12.81-31-32.65-31s-34.09 14.04-34.09 30.99z"/>
<path class="cls-1" d="M701.82,642.79H684.58V637h41v5.8H708.35v46h-6.53Z"/>
<path class="cls-1" d="M738.7,637v51.82h-6.52V637Z"/>
<path class="cls-1" d="M748.56,637h21c10.22,0,17.1,5.51,17.1,14.71,0,7.47-3.55,11.6-9.27,13v.14c11.52,2.25,7.32,22.61,10,23.48v.44h-7c-2.25-2.18,2.68-20.95-10.44-20.95H755.08v20.95h-6.52Zm6.52,25.08h13c5.36,0,12.1-.66,12.1-9.64s-6.74-9.64-12.1-9.64h-13Z"/>
<path class="cls-1" d="M801.6,675.83l-4.57,13h-6.74L809.42,637h7.25l19.06,51.82H829l-4.57-13ZM822.32,670l-9.2-27H813l-9.2,27Z"/>
<path class="cls-1" d="M841.3,637h8l25.87,42.68h.15V637h6.52v51.82h-8L848,646.27h-.15v42.54H841.3Z"/>
<path class="cls-1" d="m898.69 675.83-4.57 13h-6.74l19.13-51.83h7.25l19.06 51.82h-6.74l-4.57-13zm20.72-5.83-9.2-27h-0.14l-9.21 27z"/>
<path class="cls-1" d="M605.82,398.36a7.06,7.06,0,1,1,7.07,7.17A7,7,0,0,1,605.82,398.36Zm12.76,0a5.7,5.7,0,1,0-5.69,5.9A5.61,5.61,0,0,0,618.58,398.36Zm-8.47-3.88h3.26c1.57,0,2.6.8,2.6,2.19a1.78,1.78,0,0,1-1.42,1.9v0c1.75.32,1.1,3.31,1.51,3.43v.09h-1.57c-.32-.32.42-3-1.63-3h-1.27v3h-1.48Zm1.48,3.41h1.3c.8,0,1.57-.06,1.57-1.07s-.77-1-1.57-1h-1.3Z"/>
</svg>
